<?xml version="1.0" encoding="utf-8"?>
<svg xmlns="http://www.w3.org/2000/svg" xmlns:xlink="http://www.w3.org/1999/xlink" width="400" height="400" viewBox="0 0 1600 1600">
<defs>
  <clipPath id="clip170">
    <rect x="0" y="0" width="1600" height="1600"/>
  </clipPath>
</defs>
<path clip-path="url(#clip170)" d="M0 1600 L1600 1600 L1600 0 L0 0  Z" fill="#ffffff" fill-rule="evenodd" fill-opacity="1"/>
<defs>
  <clipPath id="clip171">
    <rect x="320" y="160" width="1121" height="1121"/>
  </clipPath>
</defs>
<path clip-path="url(#clip170)" d="M200.803 1430.29 L1552.76 1430.29 L1552.76 47.2441 L200.803 47.2441  Z" fill="#ffffff" fill-rule="evenodd" fill-opacity="1"/>
<defs>
  <clipPath id="clip172">
    <rect x="200" y="47" width="1353" height="1384"/>
  </clipPath>
</defs>
<polyline clip-path="url(#clip172)" style="stroke:#4063d8; stroke-linecap:round; stroke-linejoin:round; stroke-width:8; stroke-opacity:1; fill:none" points="335.998,238.467 606.389,808.909 876.779,436.451 1147.17,724.368 1417.56,1042.66 "/>
<circle clip-path="url(#clip172)" cx="335.998" cy="238.467" r="57.6" fill="#4063d8" fill-rule="evenodd" fill-opacity="1" stroke="none"/>
<circle clip-path="url(#clip172)" cx="606.389" cy="808.909" r="57.6" fill="#4063d8" fill-rule="evenodd" fill-opacity="1" stroke="none"/>
<circle clip-path="url(#clip172)" cx="876.779" cy="436.451" r="57.6" fill="#4063d8" fill-rule="evenodd" fill-opacity="1" stroke="none"/>
<circle clip-path="url(#clip172)" cx="1147.17" cy="724.368" r="57.6" fill="#4063d8" fill-rule="evenodd" fill-opacity="1" stroke="none"/>
<circle clip-path="url(#clip172)" cx="1417.56" cy="1042.66" r="57.6" fill="#4063d8" fill-rule="evenodd" fill-opacity="1" stroke="none"/>
<circle clip-path="url(#clip172)" cx="335.998" cy="943.682" r="57.6" fill="#cb3c33" fill-rule="evenodd" fill-opacity="1" stroke="none"/>
<circle clip-path="url(#clip172)" cx="606.389" cy="828.835" r="57.6" fill="#cb3c33" fill-rule="evenodd" fill-opacity="1" stroke="none"/>
<circle clip-path="url(#clip172)" cx="876.779" cy="286.232" r="57.6" fill="#cb3c33" fill-rule="evenodd" fill-opacity="1" stroke="none"/>
<circle clip-path="url(#clip172)" cx="1147.17" cy="1233.36" r="57.6" fill="#cb3c33" fill-rule="evenodd" fill-opacity="1" stroke="none"/>
<circle clip-path="url(#clip172)" cx="1417.56" cy="1201.12" r="57.6" fill="#cb3c33" fill-rule="evenodd" fill-opacity="1" stroke="none"/>
<circle clip-path="url(#clip172)" cx="335.998" cy="502.35" r="57.6" fill="#389826" fill-rule="evenodd" fill-opacity="1" stroke="none"/>
<circle clip-path="url(#clip172)" cx="606.389" cy="1187.24" r="57.6" fill="#389826" fill-rule="evenodd" fill-opacity="1" stroke="none"/>
<circle clip-path="url(#clip172)" cx="876.779" cy="1315.99" r="57.6" fill="#389826" fill-rule="evenodd" fill-opacity="1" stroke="none"/>
<circle clip-path="url(#clip172)" cx="1147.17" cy="923.475" r="57.6" fill="#389826" fill-rule="evenodd" fill-opacity="1" stroke="none"/>
<circle clip-path="url(#clip172)" cx="1417.56" cy="208.845" r="57.6" fill="#389826" fill-rule="evenodd" fill-opacity="1" stroke="none"/>
<circle clip-path="url(#clip172)" cx="335.998" cy="172.975" r="57.6" fill="#9558b2" fill-rule="evenodd" fill-opacity="1" stroke="none"/>
<circle clip-path="url(#clip172)" cx="606.389" cy="638.298" r="57.6" fill="#9558b2" fill-rule="evenodd" fill-opacity="1" stroke="none"/>
<circle clip-path="url(#clip172)" cx="876.779" cy="971.666" r="57.6" fill="#9558b2" fill-rule="evenodd" fill-opacity="1" stroke="none"/>
<circle clip-path="url(#clip172)" cx="1147.17" cy="1206.22" r="57.6" fill="#9558b2" fill-rule="evenodd" fill-opacity="1" stroke="none"/>
<circle clip-path="url(#clip172)" cx="1417.56" cy="1103.45" r="57.6" fill="#9558b2" fill-rule="evenodd" fill-opacity="1" stroke="none"/>
</svg>
